<svg width="23" height="25" viewBox="0 0 23 25" fill="none" xmlns="http://www.w3.org/2000/svg">
<path d="M11.4198 8.61134e-09C12.4446 -6.70947e-05 13.4307 0.392042 14.1756 1.09589C14.9205 1.79974 15.3679 2.76197 15.4259 3.78519L15.4321 4.01235H21.9136C22.1482 4.01242 22.374 4.10154 22.5454 4.26169C22.7168 4.42185 22.8211 4.64111 22.8371 4.87516C22.8531 5.10921 22.7796 5.34061 22.6316 5.52259C22.4835 5.70458 22.2719 5.82358 22.0395 5.85556L21.9136 5.8642H20.9309L19.3506 21.9383C19.2714 22.7396 18.91 23.4868 18.3308 24.0463C17.7517 24.6057 16.9925 24.9411 16.1889 24.9926L15.9716 25H6.8679C6.0623 25 5.28295 24.7135 4.66914 24.1917C4.05533 23.67 3.64706 22.9469 3.51728 22.1519L3.48889 21.937L1.90741 5.8642H0.925926C0.702176 5.86419 0.485997 5.78316 0.31737 5.63609C0.148742 5.48902 0.039072 5.28587 0.00864194 5.0642L0 4.93827C9.43568e-06 4.71452 0.0810403 4.49834 0.228107 4.32972C0.375175 4.16109 0.578329 4.05142 0.8 4.02099L0.925926 4.01235H7.40741C7.40741 2.94821 7.83014 1.92765 8.5826 1.17519C9.33506 0.422728 10.3556 8.61134e-09 11.4198 8.61134e-09ZM19.0704 5.8642H3.7679L5.3321 21.7556C5.36673 22.1101 5.52299 22.4418 5.77435 22.6943C6.02571 22.9468 6.35669 23.1045 6.71111 23.1407L6.8679 23.1481H15.9716C16.7123 23.1481 17.3407 22.6235 17.484 21.9111L17.5086 21.7556L19.0691 5.8642H19.0704ZM13.5802 9.25926C13.804 9.25927 14.0202 9.3403 14.1888 9.48737C14.3574 9.63443 14.4671 9.83759 14.4975 10.0593L14.5062 10.1852V18.8272C14.5061 19.0618 14.417 19.2876 14.2568 19.459C14.0967 19.6304 13.8774 19.7347 13.6434 19.7506C13.4093 19.7666 13.1779 19.6932 12.9959 19.5451C12.8139 19.3971 12.6949 19.1855 12.663 18.9531L12.6543 18.8272V10.1852C12.6543 9.93961 12.7519 9.7041 12.9255 9.53046C13.0992 9.35681 13.3347 9.25926 13.5802 9.25926ZM9.25926 9.25926C9.48301 9.25927 9.69919 9.3403 9.86782 9.48737C10.0364 9.63443 10.1461 9.83759 10.1765 10.0593L10.1852 10.1852V18.8272C10.1851 19.0618 10.096 19.2876 9.93584 19.459C9.77568 19.6304 9.55642 19.7347 9.32237 19.7506C9.08832 19.7666 8.85692 19.6932 8.67494 19.5451C8.49296 19.3971 8.37395 19.1855 8.34198 18.9531L8.33333 18.8272V10.1852C8.33333 9.93961 8.43089 9.7041 8.60453 9.53046C8.77818 9.35681 9.01369 9.25926 9.25926 9.25926ZM11.4198 1.85185C10.8775 1.85187 10.3552 2.05577 9.95631 2.42306C9.55745 2.79036 9.31128 3.2942 9.26667 3.83457L9.25926 4.01235H13.5802C13.5802 3.43935 13.3526 2.88982 12.9475 2.48465C12.5423 2.07947 11.9928 1.85185 11.4198 1.85185Z" fill="#D70000"/>
</svg>
