<svg width="22.000000" height="22.000000" viewBox="0 0 22 22" fill="none" xmlns="http://www.w3.org/2000/svg" xmlns:xlink="http://www.w3.org/1999/xlink">
	<desc>
			Created with Pixso.
	</desc>
	<defs>
		<clipPath id="clip10_1313">
			<rect id="svg" width="22.000000" height="22.000000" fill="white" fill-opacity="0"/>
		</clipPath>
	</defs>
	<g clip-path="url(#clip10_1313)">
		<path id="path" d="M3 0C2.20435 0 1.44128 0.316071 0.878677 0.878677C0.316071 1.44129 0 2.20435 0 3L0 19C0 19.7956 0.316071 20.5587 0.878677 21.1213C1.44128 21.6839 2.20435 22 3 22L19 22C19.7956 22 20.5587 21.6839 21.1213 21.1213C21.6839 20.5587 22 19.7956 22 19L22 3C22 2.20435 21.6839 1.44129 21.1213 0.878677C20.5587 0.316071 19.7956 0 19 0L3 0ZM19 2L3 2C2.73479 2 2.48042 2.10536 2.29289 2.29289C2.10536 2.48043 2 2.73478 2 3L2 19C2 19.2652 2.10536 19.5196 2.29289 19.7071C2.48042 19.8946 2.73479 20 3 20L19 20C19.2652 20 19.5196 19.8946 19.7071 19.7071C19.8946 19.5196 20 19.2652 20 19L20 3C20 2.73478 19.8946 2.48043 19.7071 2.29289C19.5196 2.10536 19.2652 2 19 2Z" fill="#22B539" fill-opacity="1.000000" fill-rule="evenodd"/>
		<path id="path" d="M16.2423 5.37811L16.2401 5.34991C16.6042 4.92439 17.2246 4.87609 17.6501 5.24015C18.0756 5.6042 18.1239 6.22458 17.7599 6.65009L17.7317 6.65229L16.2423 5.37811ZM5.29111 12.077L5.26285 12.0757C4.88445 11.6629 4.91147 11.0413 5.32428 10.6628C5.73708 10.2844 6.35875 10.3115 6.73715 10.7243L6.73593 10.7525L5.29111 12.077Z" fill="#000000" fill-opacity="0" fill-rule="nonzero"/>
		<path id="path" d="M17 6L9.3 15L6 11.4" stroke="#22B539" stroke-opacity="1.000000" stroke-width="2.000000" stroke-linejoin="round" stroke-linecap="round"/>
	</g>
</svg>
