<svg width="22.000000" height="22.000000" viewBox="0 0 22 22" fill="none" xmlns="http://www.w3.org/2000/svg" xmlns:xlink="http://www.w3.org/1999/xlink">
	<desc>
			Created with Pixso.
	</desc>
	<defs>
		<clipPath id="clip10_1307">
			<rect id="svg" width="22.000000" height="22.000000" fill="white" fill-opacity="0"/>
		</clipPath>
	</defs>
	<g clip-path="url(#clip10_1307)">
		<path id="path" d="M15.3959 6.75703C15.4889 6.84991 15.5627 6.96019 15.613 7.0816C15.6633 7.203 15.6892 7.33312 15.6892 7.46453C15.6892 7.59595 15.6633 7.72608 15.613 7.84747C15.5627 7.96887 15.4889 8.07916 15.3959 8.17204L12.4139 11.153L15.0899 13.828C15.2776 14.0157 15.383 14.2702 15.383 14.5355C15.383 14.8009 15.2776 15.0554 15.0899 15.243C14.9023 15.4307 14.6478 15.5361 14.3824 15.5361C14.1171 15.5361 13.8626 15.4307 13.6749 15.243L10.9999 12.567L8.32494 15.243C8.1373 15.4307 7.88281 15.5361 7.61745 15.5361C7.35208 15.5361 7.09758 15.4307 6.90994 15.243C6.72229 15.0554 6.61688 14.8009 6.61688 14.5355C6.61688 14.2702 6.72229 14.0157 6.90994 13.828L9.58594 11.153L6.60394 8.17204C6.51103 8.07906 6.43735 7.96869 6.38708 7.84724C6.33682 7.72578 6.31099 7.59563 6.31104 7.46418C6.31108 7.33274 6.33702 7.20259 6.38736 7.08118C6.4377 6.95976 6.51146 6.84944 6.60443 6.75653C6.69742 6.66362 6.80779 6.58994 6.92923 6.53968C7.05069 6.48943 7.18086 6.46358 7.3123 6.46362C7.44374 6.46367 7.57388 6.48962 7.6953 6.53996C7.81671 6.59029 7.92703 6.66406 8.01994 6.75703L10.9999 9.74004L13.9809 6.75803C14.0738 6.66506 14.1841 6.5913 14.3055 6.54097C14.4269 6.49065 14.557 6.46475 14.6884 6.46475C14.8199 6.46475 14.95 6.49065 15.0714 6.54097C15.1928 6.5913 15.3031 6.66406 15.3959 6.75703Z" fill="#68617C" fill-opacity="1.000000" fill-rule="nonzero"/>
		<path id="path" d="M3 0C2.20435 0 1.44128 0.316071 0.878677 0.878677C0.316071 1.44129 0 2.20435 0 3L0 19C0 19.7956 0.316071 20.5587 0.878677 21.1213C1.44128 21.6839 2.20435 22 3 22L19 22C19.7956 22 20.5587 21.6839 21.1213 21.1213C21.6839 20.5587 22 19.7956 22 19L22 3C22 2.20435 21.6839 1.44129 21.1213 0.878677C20.5587 0.316071 19.7956 0 19 0L3 0ZM19 2L3 2C2.73479 2 2.48042 2.10536 2.29289 2.29289C2.10536 2.48043 2 2.73478 2 3L2 19C2 19.2652 2.10536 19.5196 2.29289 19.7071C2.48042 19.8946 2.73479 20 3 20L19 20C19.2652 20 19.5196 19.8946 19.7071 19.7071C19.8946 19.5196 20 19.2652 20 19L20 3C20 2.73478 19.8946 2.48043 19.7071 2.29289C19.5196 2.10536 19.2652 2 19 2Z" fill="#68617C" fill-opacity="1.000000" fill-rule="evenodd"/>
	</g>
</svg>
