<svg width="638" height="821" viewBox="0 0 638 821" fill="none" xmlns="http://www.w3.org/2000/svg">
<path d="M462.199 335.119C436.915 291.884 472.605 238.531 522.217 245.397L844.683 290.022C888.565 296.095 910.96 345.995 886.329 382.816L728.2 619.205C703.57 656.026 648.899 654.374 626.536 616.133L462.199 335.119Z" fill="#F7572B"/>
<path d="M490 306V306C487.849 300.885 480.692 300.643 478.201 305.601L478 306" stroke="#353535" stroke-width="4" stroke-linecap="round"/>
<path d="M510 306V306C507.849 300.885 500.692 300.643 498.201 305.601L498 306" stroke="#353535" stroke-width="4" stroke-linecap="round"/>
<circle cx="413.5" cy="542.5" r="144.5" fill="#FEC902"/>
<ellipse cx="367" cy="504" rx="4" ry="6" fill="#353535"/>
<ellipse cx="388" cy="504" rx="4" ry="6" fill="#353535"/>
<path d="M369 517V517C372.648 523.124 381.386 523.48 385.521 517.673L386 517" stroke="#353535" stroke-width="4" stroke-linecap="round"/>
<path d="M224.857 478.222C236.752 465.211 257.248 465.211 269.142 478.222L414.981 637.759C432.58 657.01 418.922 688 392.838 688H101.162C75.0782 688 61.4204 657.011 79.0192 637.759L224.857 478.222Z" fill="#01B675"/>
<path d="M258 530V530C255.849 524.885 248.692 524.643 246.201 529.601L246 530" stroke="#353535" stroke-width="4" stroke-linecap="round"/>
<path d="M278 530V530C275.849 524.885 268.692 524.643 266.201 529.601L266 530" stroke="#353535" stroke-width="4" stroke-linecap="round"/>
<rect x="505" y="400" width="133" height="287" rx="20" fill="#EF83EB"/>
<ellipse cx="536" cy="451" rx="4" ry="6" fill="#353535"/>
<ellipse cx="557" cy="451" rx="4" ry="6" fill="#353535"/>
</svg>
