<svg width="563.000000" height="198.250977" viewBox="0 0 563 198.251" fill="none" xmlns="http://www.w3.org/2000/svg" xmlns:xlink="http://www.w3.org/1999/xlink">
	<desc>
			Created with Pixso.
	</desc>
	<defs/>
	<circle id="Ellipse 1" cx="334.874634" cy="99.125488" r="99.125603" fill="#FEC902" fill-opacity="1.000000"/>
	<ellipse id="Ellipse 2" cx="283.744019" cy="68.115723" rx="2.743961" ry="4.115942" fill="#353535" fill-opacity="1.000000"/>
	<ellipse id="Ellipse 3" cx="298.149780" cy="68.115723" rx="2.743961" ry="4.115942" fill="#353535" fill-opacity="1.000000"/>
	<path id="Line 1" d="M285.116 77.0337C287.619 81.2349 293.613 81.479 296.449 77.4956L296.778 77.0337" stroke="#353535" stroke-opacity="1.000000" stroke-width="4.000000" stroke-linecap="round"/>
	<rect id="Rectangle 2" x="127.130371" y="1.000000" rx="20.000000" width="91.236717" height="196.879227" fill="#F9A8F6" fill-opacity="1.000000"/>
	<ellipse id="Ellipse 4" cx="148.396118" cy="35.985352" rx="2.743961" ry="4.115942" fill="#353535" fill-opacity="1.000000"/>
	<ellipse id="Ellipse 5" cx="162.801880" cy="35.985352" rx="2.743961" ry="4.115942" fill="#353535" fill-opacity="1.000000"/>
	<path id="Rectangle 2" d="M470 37L523 37C545.091 37 563 54.9087 563 77L563 178C563 189.046 554.046 198 543 198L450 198C438.954 198 430 189.046 430 178L430 77C430 54.9087 447.909 37 470 37Z" fill="#F7572B" fill-opacity="1.000000" fill-rule="nonzero"/>
	<ellipse id="Ellipse 4" cx="461.000000" cy="162.000000" rx="4.000000" ry="6.000000" fill="#353535" fill-opacity="1.000000"/>
	<ellipse id="Ellipse 5" cx="482.000000" cy="162.000000" rx="4.000000" ry="6.000000" fill="#353535" fill-opacity="1.000000"/>
	<path id="Rectangle 81" d="M17.095 68.2114L73.5 125L129.788 180.905C136.121 187.194 131.666 198 122.741 198L10 198C4.47717 198 0 193.523 0 188L0 75.2583C0 66.333 10.8052 61.8789 17.095 68.2114Z" fill="#ED9A22" fill-opacity="1.000000" fill-rule="nonzero"/>
	<path id="Line 4" d="M53.2319 133.918C51.7566 130.41 46.8468 130.243 45.1377 133.644L45 133.918" stroke="#353535" stroke-opacity="1.000000" stroke-width="4.000000" stroke-linecap="round"/>
	<path id="Line 5" d="M66.9517 133.918C65.4763 130.41 60.5665 130.243 58.8574 133.644L58.7197 133.918" stroke="#353535" stroke-opacity="1.000000" stroke-width="4.000000" stroke-linecap="round"/>
</svg>
