<svg width="38.000000" height="38.000000" viewBox="0 0 38 38" fill="none" xmlns="http://www.w3.org/2000/svg" xmlns:xlink="http://www.w3.org/1999/xlink">
	<desc>
			Created with Pixso.
	</desc>
	<defs>
		<clipPath id="clip7_4934">
			<rect id="svg" width="38.000000" height="38.000000" fill="white" fill-opacity="0"/>
		</clipPath>
	</defs>
	<g clip-path="url(#clip7_4934)">
		<circle id="circle" cx="19.000000" cy="19.000000" r="19.000000" fill="#765ACF" fill-opacity="1.000000"/>
		<path id="path" d="M27.0676 12.6588C26.5493 12.1327 25.934 11.7153 25.2568 11.4307C24.5796 11.1461 23.8537 10.9997 23.1208 11C22.3878 11.0003 21.6621 11.1472 20.9851 11.4323C20.3081 11.7175 19.6931 12.1353 19.1752 12.6618L18.4992 13.3565L17.8288 12.6633C17.3108 12.1374 16.6915 11.7158 16.0146 11.4312C15.3378 11.1466 14.6124 11.0001 13.8798 11.0001C13.1472 11.0001 12.4218 11.1466 11.7449 11.4312C11.0681 11.7158 10.4531 12.133 9.93509 12.6589L9.63393 12.9646C8.58774 14.0268 8 15.4673 8 16.9694C8 18.4715 8.58774 19.912 9.63393 20.9741L17.5823 29.0434L18.4799 29.9982L19.3655 29.0992L27.3687 20.974C28.4133 19.911 29 18.4708 29 16.9693C29 15.4677 28.4133 14.0275 27.3687 12.9645L27.0676 12.6588ZM26.3823 19.9728L18.5013 27.9741L10.62 19.9728C9.8354 19.1762 9.3946 18.0958 9.3946 16.9693C9.3946 15.8427 9.8354 14.7623 10.62 13.9657L10.9212 13.66C11.7055 12.8638 12.7691 12.4163 13.8782 12.4159C14.9873 12.4155 16.0512 12.8621 16.836 13.6577L18.4962 15.3739L20.1643 13.66C20.5528 13.2655 21.0141 12.9527 21.5217 12.7392C22.0293 12.5257 22.5734 12.4159 23.1228 12.4159C23.6723 12.4159 24.2164 12.5257 24.724 12.7392C25.2316 12.9527 25.6928 13.2655 26.0814 13.66L26.3825 13.9657C27.166 14.7629 27.6059 15.8431 27.6059 16.9693C27.6059 18.0955 27.1658 19.1756 26.3823 19.9728Z" fill="#FFFFFF" fill-opacity="1.000000" fill-rule="nonzero"/>
	</g>
</svg>
