<svg width="23" height="23" viewBox="0 0 23 23" fill="none" xmlns="http://www.w3.org/2000/svg">
<path d="M13.3724 9.36043C13.3724 9.80331 13.7318 10.1628 14.1747 10.1628H14.9128L12.7594 12.3162C12.7346 12.3411 12.705 12.3609 12.6725 12.3743C12.6401 12.3878 12.6052 12.3948 12.57 12.3948C12.5349 12.3948 12.5 12.3878 12.4675 12.3743C12.4351 12.3609 12.4055 12.3411 12.3807 12.3162L10.684 10.6195C10.333 10.2687 9.85702 10.0717 9.36074 10.0717C8.86446 10.0717 8.38849 10.2687 8.03744 10.6195L5.58446 13.0725C5.50564 13.146 5.44241 13.2346 5.39856 13.333C5.35471 13.4314 5.33113 13.5376 5.32923 13.6454C5.32733 13.7531 5.34714 13.8601 5.3875 13.96C5.42785 14.0599 5.48791 14.1507 5.5641 14.2268C5.64028 14.303 5.73104 14.3631 5.83094 14.4034C5.93084 14.4438 6.03785 14.4636 6.14558 14.4617C6.25331 14.4598 6.35955 14.4362 6.45797 14.3924C6.55639 14.3485 6.64497 14.2853 6.71842 14.2065L9.17139 11.7535C9.19624 11.7286 9.22575 11.7088 9.25824 11.6954C9.29073 11.6819 9.32557 11.6749 9.36074 11.6749C9.39592 11.6749 9.43075 11.6819 9.46324 11.6954C9.49574 11.7088 9.52525 11.7286 9.55009 11.7535L11.2467 13.4502C11.5978 13.801 12.0738 13.998 12.57 13.998C13.0663 13.998 13.5423 13.801 13.8933 13.4502L16.0468 11.2978V12.0348C16.0468 12.2476 16.1313 12.4517 16.2818 12.6022C16.4323 12.7526 16.6363 12.8372 16.8491 12.8372C17.0619 12.8372 17.266 12.7526 17.4164 12.6022C17.5669 12.4517 17.6514 12.2476 17.6514 12.0348V9.36043C17.6514 9.14764 17.5669 8.94357 17.4164 8.7931C17.266 8.64264 17.0619 8.55811 16.8491 8.55811H14.1747C13.9619 8.55811 13.7578 8.64264 13.6074 8.7931C13.4569 8.94357 13.3724 9.14764 13.3724 9.36043Z" fill="#222222"/>
<path fill-rule="evenodd" clip-rule="evenodd" d="M11.439 0C8.96893 0 7.03372 6.37631e-08 5.52321 0.203256C3.97847 0.410791 2.75893 0.845116 1.80149 1.80149C0.844047 2.75893 0.410791 3.97847 0.203256 5.52428C6.37631e-08 7.03372 0 8.96893 0 11.439V11.561C0 14.0311 6.37631e-08 15.9663 0.203256 17.4768C0.410791 19.0215 0.845116 20.2411 1.80149 21.1985C2.75893 22.156 3.97847 22.5892 5.52428 22.7967C7.03372 23 8.96893 23 11.439 23H11.561C14.0311 23 15.9663 23 17.4768 22.7967C19.0215 22.5892 20.2411 22.1549 21.1985 21.1985C22.156 20.2411 22.5892 19.0215 22.7967 17.4757C23 15.9663 23 14.0311 23 11.561V11.439C23 8.96893 23 7.03372 22.7967 5.52321C22.5892 3.97847 22.1549 2.75893 21.1985 1.80149C20.2411 0.844047 19.0215 0.410791 17.4757 0.203256C15.9663 6.37631e-08 14.0311 0 11.561 0H11.439ZM2.93651 2.93651C3.54628 2.32674 4.37 1.97693 5.73823 1.79293C7.12893 1.60679 8.95609 1.60465 11.5 1.60465C14.0439 1.60465 15.8711 1.60679 17.2618 1.79293C18.63 1.97693 19.4548 2.32781 20.0646 2.93651C20.6733 3.54628 21.0231 4.37 21.2071 5.73823C21.3932 7.12893 21.3953 8.95609 21.3953 11.5C21.3953 14.0439 21.3932 15.8711 21.2071 17.2618C21.0231 18.63 20.6722 19.4548 20.0635 20.0646C19.4537 20.6733 18.63 21.0231 17.2618 21.2071C15.8711 21.3932 14.0439 21.3953 11.5 21.3953C8.95609 21.3953 7.12893 21.3932 5.73823 21.2071C4.37 21.0231 3.54521 20.6722 2.93544 20.0635C2.32674 19.4537 1.97693 18.63 1.79293 17.2618C1.60679 15.8711 1.60465 14.0439 1.60465 11.5C1.60465 8.95609 1.60679 7.12893 1.79293 5.73823C1.97693 4.37 2.32781 3.54628 2.93651 2.93651Z" fill="#222222"/>
</svg>
