<svg width="21" height="22" viewBox="0 0 21 22" fill="none" xmlns="http://www.w3.org/2000/svg">
<path d="M9.98349 0C10.3016 0.000345531 10.6075 0.11963 10.8388 0.333481C11.0701 0.547333 11.2093 0.839609 11.2279 1.15059C11.2465 1.46158 11.1432 1.7678 10.9391 2.00668C10.7349 2.24557 10.4453 2.3991 10.1295 2.43589L9.98349 2.44444H3.74381C3.43815 2.44448 3.14313 2.55439 2.91471 2.75332C2.6863 2.95225 2.54037 3.22636 2.50461 3.52367L2.49587 3.66667V18.3333C2.49591 18.6327 2.60813 18.9216 2.81124 19.1453C3.01436 19.3691 3.29424 19.512 3.5978 19.547L3.74381 19.5556H9.35952C9.67759 19.5559 9.98353 19.6752 10.2148 19.889C10.4461 20.1029 10.5853 20.3952 10.6039 20.7061C10.6226 21.0171 10.5193 21.3234 10.3151 21.5622C10.111 21.8011 9.82137 21.9547 9.50553 21.9914L9.35952 22H3.74381C2.78887 22.0001 1.87001 21.6427 1.17523 21.0011C0.480447 20.3595 0.0622626 19.4821 0.00623983 18.5484L5.81594e-09 18.3333V3.66667C-5.31892e-05 2.73141 0.364803 1.83148 1.01992 1.15101C1.67503 0.470547 2.57088 0.0609797 3.52417 0.00611125L3.74381 0H9.98349ZM17.1055 6.67822L20.6346 10.1359C20.8686 10.3651 21 10.6759 21 11C21 11.3241 20.8686 11.6349 20.6346 11.8641L17.1055 15.3218C16.8713 15.551 16.5538 15.6796 16.2227 15.6795C15.8917 15.6794 15.5742 15.5505 15.3403 15.3212C15.1063 15.0918 14.9749 14.7808 14.975 14.4566C14.9751 14.1324 15.1067 13.8215 15.3409 13.5923L16.7398 12.2222H9.98349C9.65251 12.2222 9.3351 12.0935 9.10106 11.8642C8.86703 11.635 8.73555 11.3242 8.73555 11C8.73555 10.6758 8.86703 10.365 9.10106 10.1358C9.3351 9.90655 9.65251 9.77778 9.98349 9.77778H16.7398L15.3409 8.40767C15.1067 8.17849 14.9751 7.8676 14.975 7.54338C14.9749 7.21916 15.1063 6.90817 15.3403 6.67883C15.5742 6.4495 15.8917 6.32059 16.2227 6.32047C16.5538 6.32036 16.8713 6.44905 17.1055 6.67822Z" fill="#222222"/>
</svg>
