<svg width="25" height="28" viewBox="0 0 25 28" fill="none" xmlns="http://www.w3.org/2000/svg">
<path fill-rule="evenodd" clip-rule="evenodd" d="M0.00359432 7.98495C0.0037506 7.32808 0.482425 6.52173 1.07471 6.18259L11.4291 0.253872C12.0206 -0.0848222 12.9786 -0.0848223 13.5712 0.255062L23.9292 6.19509C24.5209 6.53423 25.0002 7.34088 25 8.00056L24.9956 19.8412C24.9955 20.4991 24.516 21.3086 23.9254 21.649L13.5487 27.6294C12.9578 27.97 12.0011 27.9699 11.4093 27.6279L1.06893 21.6505C0.478206 21.3092 -0.0003124 20.5003 1.53025e-07 19.8431L0.00359432 7.98509V7.98495ZM2.18146 7.02196L12.4698 12.4897L22.2786 7.09351L12.4532 1.60211L2.18131 7.02196H2.18146ZM1.51791 8.79159C1.51791 9.03375 1.35148 19.4805 1.35148 19.4805C1.34616 19.8086 1.58074 20.2119 1.87766 20.3825L11.5062 25.9132L11.5948 14.3983C11.5948 14.3983 1.51807 8.54929 1.51807 8.79159H1.51791ZM13.4116 25.8882L22.9307 20.1376C23.2952 19.9175 23.5907 19.4066 23.5907 18.9954V8.73284L13.4116 14.3127V25.8882Z" fill="#222222"/>
<path fill-rule="evenodd" clip-rule="evenodd" d="M5.29 14.7091C4.59514 15.0993 3.6739 14.8129 3.23246 14.0697C2.79116 13.3266 2.99677 12.4078 3.69163 12.0178C4.38663 11.6276 5.30787 11.9139 5.74916 12.6571C6.1906 13.4003 5.985 14.3191 5.29 14.7091ZM9.9398 17.6756C9.24494 18.0658 8.3237 17.7794 7.88226 17.0362C7.44096 16.2931 7.64657 15.3743 8.34143 14.9843C9.03643 14.5941 9.95767 14.8804 10.399 15.6236C10.8404 16.3668 10.6348 17.2856 9.9398 17.6756ZM5.29 19.9358C4.59514 20.326 3.6739 20.0396 3.23246 19.2964C2.79116 18.5533 2.99677 17.6345 3.69163 17.2445C4.38663 16.8543 5.30787 17.1406 5.74916 17.8838C6.1906 18.627 5.985 19.5458 5.29 19.9358ZM9.9398 22.9023C9.24494 23.2925 8.3237 23.0061 7.88226 22.2629C7.44096 21.5198 7.64657 20.601 8.34143 20.211C9.03643 19.8208 9.95767 20.1071 10.399 20.8503C10.8404 21.5935 10.6348 22.5123 9.9398 22.9023ZM21.3083 11.8765C20.6133 11.4863 19.6922 11.7727 19.2507 12.5159C18.8094 13.259 19.0149 14.1778 19.7099 14.5678C20.4049 14.958 21.3261 14.6717 21.7674 13.9285C22.2089 13.1853 22.0033 12.2665 21.3083 11.8765ZM18.9488 15.9731C18.2539 15.5829 17.3327 15.8693 16.8913 16.6125C16.45 17.3556 16.6556 18.2744 17.3504 18.6644C18.0454 19.0546 18.9667 18.7683 19.408 18.0251C19.8494 17.2819 19.6438 16.3631 18.9488 15.9731ZM16.4786 19.9284C15.7837 19.5383 14.8625 19.8246 14.421 20.5678C13.9797 21.311 14.1854 22.2297 14.8802 22.6198C15.5752 23.0099 16.4965 22.7236 16.9377 21.9804C17.3792 21.2372 17.1736 20.3185 16.4786 19.9284ZM12.6628 5.76904C11.74 5.76904 10.9918 6.46476 10.9918 7.32293C10.9918 8.18109 11.74 8.87681 12.6628 8.87681C13.5857 8.87681 14.3339 8.18109 14.3339 7.32293C14.3339 6.46476 13.5857 5.76904 12.6628 5.76904Z" fill="#222222"/>
</svg>
