<svg width="45.000000" height="45.000000" viewBox="0 0 45 45" fill="none" xmlns="http://www.w3.org/2000/svg" xmlns:xlink="http://www.w3.org/1999/xlink">
	<desc>
			Created with Pixso.
	</desc>
	<defs/>
	<circle id="Ellipse 77" cx="22.500000" cy="22.500000" r="22.500000" fill="#ED9A22" fill-opacity="1.000000"/>
	<path id="HB" d="M18.232 29.5245C18.232 30.0075 22.474 29.9655 22.474 29.5245L22.474 15.6435C22.474 15.0345 18.232 15.0345 18.232 15.6435L18.232 20.5365L15.292 20.5365L15.292 15.6015C15.292 15.0135 11.05 15.0135 11.05 15.6015L11.05 29.5245C11.05 30.0285 15.292 29.9655 15.292 29.5245L15.292 24.6945L18.232 24.6945L18.232 29.5245ZM34.8756 18.9825C34.8756 16.4835 33.2166 15.1815 29.9616 15.1815L25.1736 15.1815C24.8586 15.1815 24.7956 15.2445 24.7956 15.5595L24.7956 28.9995C24.7956 29.5245 25.1316 29.8815 25.6146 29.8815L30.5706 29.8815C33.6996 29.8815 35.4007 28.5165 35.4007 26.0805C35.4007 23.8335 34.1616 22.7415 32.9856 22.3005C34.3926 21.4605 34.8756 20.3055 34.8756 18.9825ZM28.8276 18.5835L29.2686 18.5835C30.4656 18.5835 30.9486 19.0035 30.9486 19.9905C30.9486 20.9775 30.0246 21.3345 28.9326 21.3345L28.8276 21.3345L28.8276 18.5835ZM28.8276 23.8125L29.2686 23.8125C30.4656 23.8125 30.9486 24.1695 30.9486 25.0935C30.9486 26.1645 30.3606 26.5425 29.2056 26.5425L28.8276 26.5425L28.8276 23.8125Z" fill="#222222" fill-opacity="1.000000" fill-rule="evenodd"/>
</svg>
