<svg width="45.000000" height="45.000000" viewBox="0 0 45 45" fill="none" xmlns="http://www.w3.org/2000/svg" xmlns:xlink="http://www.w3.org/1999/xlink">
	<desc>
			Created with Pixso.
	</desc>
	<defs/>
	<circle id="Ellipse 85" cx="22.500000" cy="22.500000" r="22.500000" fill="#D70000" fill-opacity="1.000000"/>
	<path id="ะก" d="M26.92 16.5675C26.92 15.5595 24.967 14.9925 23.056 14.9925C19.528 14.9925 16.63 17.7225 16.63 22.5945C16.63 27.5505 19.444 30.0915 22.972 30.0915C25.156 30.0915 27.214 29.4405 27.214 28.3065C27.214 27.4455 26.08 25.0725 25.639 25.4505C25.261 25.8285 24.211 25.9755 23.707 25.9755C22.258 25.9755 20.998 24.9885 20.998 22.4685C20.998 20.0115 22.174 18.9825 23.707 18.9825C24.19 18.9825 24.988 19.2135 25.24 19.4235C25.87 19.8855 26.92 17.4495 26.92 16.5675Z" fill="#FFFFFF" fill-opacity="1.000000" fill-rule="evenodd"/>
</svg>
