<svg width="23" height="23" viewBox="0 0 23 23" fill="none" xmlns="http://www.w3.org/2000/svg">
<path d="M11.25 0.25C5.04675 0.25 0 5.29675 0 11.5V16.1609C0 17.3129 1.00913 18.25 2.25 18.25H3.375C3.67337 18.25 3.95952 18.1315 4.1705 17.9205C4.38147 17.7095 4.5 17.4234 4.5 17.125V11.3391C4.5 11.0408 4.38147 10.7546 4.1705 10.5436C3.95952 10.3327 3.67337 10.2141 3.375 10.2141H2.3535C2.979 5.86038 6.72525 2.5 11.25 2.5C15.7748 2.5 19.521 5.86038 20.1465 10.2141H19.125C18.8266 10.2141 18.5405 10.3327 18.3295 10.5436C18.1185 10.7546 18 11.0408 18 11.3391V18.25C18 19.4909 16.9909 20.5 15.75 20.5H13.5V19.375H9V22.75H15.75C18.2318 22.75 20.25 20.7318 20.25 18.25C21.4909 18.25 22.5 17.3129 22.5 16.1609V11.5C22.5 5.29675 17.4533 0.25 11.25 0.25Z" fill="#222222"/>
</svg>
