<svg width="23" height="23" viewBox="0 0 23 23" fill="none" xmlns="http://www.w3.org/2000/svg">
<path d="M11.5 0.25C5.29675 0.25 0.25 5.29675 0.25 11.5V16.1609C0.25 17.3129 1.25913 18.25 2.5 18.25H3.625C3.92337 18.25 4.20952 18.1315 4.4205 17.9205C4.63147 17.7095 4.75 17.4234 4.75 17.125V11.3391C4.75 11.0408 4.63147 10.7546 4.4205 10.5436C4.20952 10.3327 3.92337 10.2141 3.625 10.2141H2.6035C3.229 5.86038 6.97525 2.5 11.5 2.5C16.0248 2.5 19.771 5.86038 20.3965 10.2141H19.375C19.0766 10.2141 18.7905 10.3327 18.5795 10.5436C18.3685 10.7546 18.25 11.0408 18.25 11.3391V18.25C18.25 19.4909 17.2409 20.5 16 20.5H13.75V19.375H9.25V22.75H16C18.4818 22.75 20.5 20.7318 20.5 18.25C21.7409 18.25 22.75 17.3129 22.75 16.1609V11.5C22.75 5.29675 17.7033 0.25 11.5 0.25Z" fill="#222222"/>
</svg>
