<svg width="23" height="27" viewBox="0 0 23 27" fill="none" xmlns="http://www.w3.org/2000/svg">
<path d="M7.17651 14.5883V4.08829C7.17651 3.59686 7.37173 3.12556 7.71923 2.77807C8.06672 2.43057 8.53802 2.23535 9.02945 2.23535C9.52089 2.23535 9.99219 2.43057 10.3397 2.77807C10.6872 3.12556 10.8824 3.59686 10.8824 4.08829V13.353M10.8824 12.7354V10.2648C10.8824 9.77333 11.0776 9.30203 11.4251 8.95454C11.7726 8.60704 12.2439 8.41182 12.7353 8.41182C13.2268 8.41182 13.6981 8.60704 14.0456 8.95454C14.3931 9.30203 14.5883 9.77333 14.5883 10.2648V13.353M14.5883 11.5001C14.5883 11.0086 14.7835 10.5373 15.131 10.1898C15.4785 9.84234 15.9498 9.64712 16.4412 9.64712C16.9326 9.64712 17.404 9.84234 17.7514 10.1898C18.0989 10.5373 18.2942 11.0086 18.2942 11.5001V13.353" stroke="#68617C" stroke-width="1.5" stroke-linecap="round" stroke-linejoin="round"/>
<path d="M18.2941 12.7353C18.2941 12.2439 18.4893 11.7726 18.8368 11.4251C19.1843 11.0776 19.6556 10.8824 20.1471 10.8824C20.6385 10.8824 21.1098 11.0776 21.4573 11.4251C21.8048 11.7726 22 12.2439 22 12.7353V18.2941C22 20.2598 21.2191 22.1451 19.8291 23.535C18.4392 24.925 16.554 25.7059 14.5882 25.7059H12.1176H12.3746C11.1471 25.7061 9.93882 25.4014 8.85818 24.8193C7.77754 24.2371 6.8584 23.3957 6.18329 22.3706L5.94118 22C5.55576 21.4083 4.20312 19.0501 1.882 14.9242C1.64538 14.5037 1.58217 14.0074 1.70582 13.5409C1.82948 13.0744 2.13023 12.6746 2.54412 12.4265C2.98497 12.162 3.50156 12.0523 4.01184 12.115C4.52213 12.1777 4.99684 12.409 5.36059 12.7724L7.17647 14.5882M3.47059 2.23529L2.23529 1M2.23529 7.17647H1M14.5882 2.23529L15.8235 1M15.8235 5.94118H17.0588" stroke="#68617C" stroke-width="1.5" stroke-linecap="round" stroke-linejoin="round"/>
</svg>
