<svg width="10" height="10" viewBox="0 0 10 10" fill="none" xmlns="http://www.w3.org/2000/svg">
<path d="M9.08491 0.79341C9.17789 0.886283 9.25165 0.996571 9.30197 1.11797C9.35229 1.23937 9.3782 1.36949 9.3782 1.50091C9.3782 1.63233 9.35229 1.76245 9.30197 1.88385C9.25165 2.00525 9.17789 2.11554 9.08491 2.20841L6.10291 5.18941L8.77891 7.86441C8.96655 8.05205 9.07197 8.30655 9.07197 8.57191C9.07197 8.83727 8.96655 9.09177 8.77891 9.27941C8.59127 9.46705 8.33677 9.57247 8.07141 9.57247C7.80605 9.57247 7.55155 9.46705 7.36391 9.27941L4.68891 6.60341L2.01391 9.27941C1.82627 9.46705 1.57177 9.57247 1.30641 9.57247C1.04105 9.57247 0.78655 9.46705 0.598909 9.27941C0.411269 9.09177 0.305853 8.83727 0.305853 8.57191C0.305853 8.30655 0.411269 8.05205 0.598909 7.86441L3.27491 5.18941L0.29291 2.20841C0.199999 2.11543 0.126312 2.00507 0.0760542 1.88362C0.0257966 1.76216 -4.63647e-05 1.632 6.24438e-08 1.50056C4.64895e-05 1.36912 0.0259817 1.23897 0.076325 1.11755C0.126668 0.996133 0.200434 0.88582 0.293409 0.79291C0.386385 0.699999 0.496751 0.626312 0.618205 0.576055C0.739658 0.525797 0.869821 0.499954 1.00126 0.5C1.1327 0.500046 1.26285 0.525982 1.38427 0.576325C1.50569 0.626669 1.616 0.700434 1.70891 0.79341L4.68891 3.77641L7.66991 0.79441C7.76278 0.701433 7.87307 0.627674 7.99447 0.57735C8.11587 0.527026 8.24599 0.501123 8.37741 0.501123C8.50883 0.501123 8.63895 0.527026 8.76035 0.57735C8.88175 0.627674 8.99204 0.701433 9.08491 0.79441V0.79341Z" fill="#D70000"/>
</svg>
