<svg width="25" height="25" viewBox="0 0 25 25" fill="none" xmlns="http://www.w3.org/2000/svg">
<path fill-rule="evenodd" clip-rule="evenodd" d="M0 12.5C0 5.59625 5.59625 0 12.5 0C19.4037 0 25 5.59625 25 12.5C25 19.4037 19.4037 25 12.5 25C5.59625 25 0 19.4037 0 12.5ZM13.75 7.5C13.75 7.16848 13.6183 6.85054 13.3839 6.61612C13.1495 6.3817 12.8315 6.25 12.5 6.25C12.1685 6.25 11.8505 6.3817 11.6161 6.61612C11.3817 6.85054 11.25 7.16848 11.25 7.5C11.25 7.83152 11.3817 8.14946 11.6161 8.38388C11.8505 8.6183 12.1685 8.75 12.5 8.75C12.8315 8.75 13.1495 8.6183 13.3839 8.38388C13.6183 8.14946 13.75 7.83152 13.75 7.5ZM12.5 18.75C12.8315 18.75 13.1495 18.6183 13.3839 18.3839C13.6183 18.1495 13.75 17.8315 13.75 17.5V12.5C13.75 12.1685 13.6183 11.8505 13.3839 11.6161C13.1495 11.3817 12.8315 11.25 12.5 11.25C12.1685 11.25 11.8505 11.3817 11.6161 11.6161C11.3817 11.8505 11.25 12.1685 11.25 12.5V17.5C11.25 17.8315 11.3817 18.1495 11.6161 18.3839C11.8505 18.6183 12.1685 18.75 12.5 18.75Z" fill="#222222"/>
</svg>
