<svg width="31" height="29" viewBox="0 0 31 29" fill="none" xmlns="http://www.w3.org/2000/svg">
<path d="M15.0245 1.08156C15.1741 0.620904 15.8259 0.6209 15.9755 1.08156L18.729 9.55573C18.9298 10.1738 19.5057 10.5922 20.1555 10.5922L29.0658 10.5922C29.5502 10.5922 29.7516 11.212 29.3597 11.4967L22.1511 16.734C21.6254 17.116 21.4054 17.7931 21.6062 18.4111L24.3597 26.8853C24.5093 27.3459 23.9821 27.729 23.5902 27.4443L16.3817 22.2069C15.8559 21.825 15.1441 21.825 14.6183 22.2069L7.40976 27.4443C7.01791 27.729 6.49067 27.3459 6.64034 26.8853L9.39377 18.4111C9.59458 17.7931 9.37459 17.116 8.84886 16.734L1.6403 11.4967C1.24844 11.212 1.44983 10.5922 1.93419 10.5922L10.8445 10.5922C11.4943 10.5922 12.0702 10.1738 12.271 9.55573L15.0245 1.08156Z" fill="#E0E0E0" stroke="#9C9EAE"/>
</svg>
