<svg width="26" height="18" viewBox="0 0 26 18" fill="none" xmlns="http://www.w3.org/2000/svg">
<path d="M26 8.9375C26 8.9375 21.125 0 13 0C4.875 0 0 8.9375 0 8.9375C0 8.9375 4.875 17.875 13 17.875C21.125 17.875 26 8.9375 26 8.9375ZM1.90612 8.9375C2.69184 7.74333 3.59554 6.63111 4.60362 5.61762C6.695 3.523 9.555 1.625 13 1.625C16.445 1.625 19.3034 3.523 21.398 5.61762C22.4061 6.63111 23.3098 7.74333 24.0955 8.9375C24.0012 9.07887 23.8973 9.23487 23.7786 9.4055C23.2343 10.1855 22.4299 11.2255 21.398 12.2574C19.3034 14.352 16.4434 16.25 13 16.25C9.555 16.25 6.69663 14.352 4.602 12.2574C3.59392 11.2439 2.69022 10.1317 1.9045 8.9375H1.90612Z" fill="#765ACF"/>
<path d="M13 4.875C11.9226 4.875 10.8892 5.30301 10.1274 6.06488C9.36551 6.82675 8.9375 7.86006 8.9375 8.9375C8.9375 10.0149 9.36551 11.0483 10.1274 11.8101C10.8892 12.572 11.9226 13 13 13C14.0774 13 15.1108 12.572 15.8726 11.8101C16.6345 11.0483 17.0625 10.0149 17.0625 8.9375C17.0625 7.86006 16.6345 6.82675 15.8726 6.06488C15.1108 5.30301 14.0774 4.875 13 4.875ZM7.3125 8.9375C7.3125 7.42908 7.91172 5.98244 8.97833 4.91583C10.0449 3.84922 11.4916 3.25 13 3.25C14.5084 3.25 15.9551 3.84922 17.0217 4.91583C18.0883 5.98244 18.6875 7.42908 18.6875 8.9375C18.6875 10.4459 18.0883 11.8926 17.0217 12.9592C15.9551 14.0258 14.5084 14.625 13 14.625C11.4916 14.625 10.0449 14.0258 8.97833 12.9592C7.91172 11.8926 7.3125 10.4459 7.3125 8.9375Z" fill="#765ACF"/>
</svg>
