<svg width="14" height="18" viewBox="0 0 14 18" fill="none" xmlns="http://www.w3.org/2000/svg">
<path d="M3 18C2.71667 18 2.479 17.904 2.287 17.712C2.09567 17.5207 2 17.2833 2 17V15H1C0.716667 15 0.479 14.904 0.287 14.712C0.0956668 14.5207 0 14.2833 0 14C0 13.7167 0.0956668 13.4793 0.287 13.288C0.479 13.096 0.716667 13 1 13H2V11H1C0.716667 11 0.479 10.904 0.287 10.712C0.0956668 10.5207 0 10.2833 0 10C0 9.71667 0.0956668 9.479 0.287 9.287C0.479 9.09567 0.716667 9 1 9H2V1C2 0.716667 2.09567 0.479 2.287 0.287C2.479 0.0956666 2.71667 0 3 0H8.5C10.0333 0 11.3333 0.533333 12.4 1.6C13.4667 2.66667 14 3.96667 14 5.5C14 7.03333 13.4667 8.33333 12.4 9.4C11.3333 10.4667 10.0333 11 8.5 11H4V13H7C7.28333 13 7.521 13.096 7.713 13.288C7.90433 13.4793 8 13.7167 8 14C8 14.2833 7.90433 14.5207 7.713 14.712C7.521 14.904 7.28333 15 7 15H4V17C4 17.2833 3.90433 17.5207 3.713 17.712C3.521 17.904 3.28333 18 3 18ZM4 9H8.5C9.46667 9 10.2917 8.65833 10.975 7.975C11.6583 7.29167 12 6.46667 12 5.5C12 4.53333 11.6583 3.70833 10.975 3.025C10.2917 2.34167 9.46667 2 8.5 2H4V9Z" fill="#68617C"/>
</svg>
