<svg width="23" height="22" viewBox="0 0 23 22" fill="none" xmlns="http://www.w3.org/2000/svg">
<path fill-rule="evenodd" clip-rule="evenodd" d="M17.4265 15.024C18.9436 13.1523 19.6586 10.7979 19.426 8.43969C19.1934 6.08148 18.0307 3.89664 16.1745 2.32964C14.3182 0.762642 11.9078 -0.0688011 9.4336 0.00446079C6.95942 0.0777227 4.60734 1.05019 2.85586 2.72401C1.10285 4.399 0.08327 6.65059 0.00487895 9.01993C-0.0735121 11.3893 0.79519 13.6981 2.43396 15.4758C4.07273 17.2536 6.35822 18.3665 8.82471 18.5877C11.2912 18.809 13.753 18.122 15.7085 16.6667L15.7609 16.7191L20.9219 21.6588C21.0349 21.767 21.1691 21.8528 21.3168 21.9113C21.4645 21.9699 21.6228 22 21.7827 22C21.9425 22 22.1008 21.9699 22.2485 21.9113C22.3962 21.8528 22.5304 21.767 22.6435 21.6588C22.7565 21.5507 22.8462 21.4222 22.9073 21.2809C22.9685 21.1396 23 20.9881 23 20.8351C23 20.6822 22.9685 20.5307 22.9073 20.3894C22.8462 20.248 22.7565 20.1196 22.6435 20.0115L17.4812 15.0729C17.4634 15.0561 17.4452 15.0398 17.4265 15.024ZM14.9007 4.37138C15.5876 5.01808 16.1339 5.78852 16.5081 6.63827C16.8823 7.48801 17.077 8.40025 17.0809 9.32235C17.0849 10.2444 16.8979 11.1582 16.531 12.0108C16.164 12.8634 15.6243 13.6381 14.9429 14.2901C14.2615 14.9422 13.4519 15.4586 12.5609 15.8098C11.6699 16.1609 10.715 16.3398 9.75137 16.336C8.78773 16.3323 7.83442 16.146 6.9464 15.7879C6.05838 15.4298 5.25324 14.9071 4.57742 14.2498C3.22684 12.9362 2.47341 11.1651 2.48125 9.32235C2.48909 7.4796 3.25757 5.71447 4.61928 4.41144C5.981 3.10841 7.82563 2.37306 9.75137 2.36555C11.6771 2.35805 13.5279 3.079 14.9007 4.37138Z" fill="#616687" fill-opacity="0.7"/>
</svg>
