<svg width="20" height="18" viewBox="0 0 20 18" fill="none" xmlns="http://www.w3.org/2000/svg">
<path d="M14.0194 17.685C14.4491 18.105 15.1308 18.105 15.5605 17.685L19.6353 13.71C19.7455 13.6088 19.8345 13.4863 19.897 13.3497C19.9595 13.2131 19.9943 13.0652 19.9994 12.9147C20.0044 12.7643 19.9795 12.6143 19.9262 12.4737C19.873 12.3332 19.7923 12.2048 19.6892 12.0964C19.586 11.9879 19.4624 11.9016 19.3256 11.8424C19.1889 11.7831 19.0418 11.7523 18.8931 11.7517C18.7443 11.7511 18.597 11.7808 18.4598 11.8389C18.3226 11.897 18.1983 11.9824 18.0943 12.09L15.9013 14.229V1.125C15.9013 0.826631 15.7842 0.540483 15.5758 0.329505C15.3674 0.118526 15.0847 0 14.7899 0C14.4952 0 14.2125 0.118526 14.0041 0.329505C13.7957 0.540483 13.6786 0.826631 13.6786 1.125V14.229L11.4856 12.09C11.3816 11.9824 11.2573 11.897 11.1201 11.8389C10.9829 11.7808 10.8356 11.7511 10.6868 11.7517C10.5381 11.7523 10.391 11.7831 10.2542 11.8424C10.1175 11.9016 9.99388 11.9879 9.89071 12.0964C9.78755 12.2048 9.70694 12.3332 9.65366 12.4737C9.60037 12.6143 9.57551 12.7643 9.58053 12.9147C9.58555 13.0652 9.62036 13.2131 9.68289 13.3497C9.74543 13.4863 9.83441 13.6088 9.94457 13.71L14.0194 17.685ZM5.9438 0.33C5.73543 0.119324 5.45297 0.000989914 5.15846 0.000989914C4.86396 0.000989914 4.5815 0.119324 4.37313 0.33L0.298268 4.455C0.101963 4.66826 -0.00490668 4.95033 0.00017314 5.24178C0.00525296 5.53324 0.121886 5.81131 0.3255 6.01743C0.529114 6.22355 0.803811 6.34162 1.09172 6.34676C1.37963 6.3519 1.65827 6.24372 1.86894 6.045L4.04714 3.84V16.875C4.04714 17.1734 4.16422 17.4595 4.37264 17.6705C4.58105 17.8815 4.86372 18 5.15846 18C5.4532 18 5.73587 17.8815 5.94429 17.6705C6.1527 17.4595 6.26979 17.1734 6.26979 16.875V3.84L8.44799 6.045C8.65866 6.24372 8.9373 6.3519 9.22521 6.34676C9.51311 6.34162 9.78781 6.22355 9.99143 6.01743C10.195 5.81131 10.3117 5.53324 10.3168 5.24178C10.3218 4.95033 10.215 4.66826 10.0187 4.455L5.9438 0.33Z" fill="#808080"/>
</svg>
