<svg width="26" height="30" viewBox="0 0 26 30" fill="none" xmlns="http://www.w3.org/2000/svg">
<path d="M13.7647 30L13.3824 25.5H13C9.38039 25.5 6.30882 24.2625 3.78529 21.7875C1.26176 19.3125 0 16.3 0 12.75C0 9.2 1.26176 6.1875 3.78529 3.7125C6.30882 1.2375 9.38039 0 13 0C14.8098 0 16.4983 0.331 18.0654 0.993C19.6336 1.656 21.0105 2.5685 22.1964 3.7305C23.3811 4.8935 24.311 6.2435 24.986 7.7805C25.662 9.3185 26 10.975 26 12.75C26 16.55 24.8402 19.956 22.5206 22.968C20.201 25.981 17.2824 28.325 13.7647 30ZM12.9618 20.9625C13.3951 20.9625 13.7647 20.8125 14.0706 20.5125C14.3765 20.2125 14.5294 19.85 14.5294 19.425C14.5294 19 14.3765 18.6375 14.0706 18.3375C13.7647 18.0375 13.3951 17.8875 12.9618 17.8875C12.5284 17.8875 12.1588 18.0375 11.8529 18.3375C11.5471 18.6375 11.3941 19 11.3941 19.425C11.3941 19.85 11.5471 20.2125 11.8529 20.5125C12.1588 20.8125 12.5284 20.9625 12.9618 20.9625ZM13 16.2C13.2804 16.2 13.5353 16.1 13.7647 15.9C13.9941 15.7 14.1471 15.425 14.2235 15.075C14.2745 14.75 14.4147 14.456 14.6441 14.193C14.8735 13.931 15.2686 13.525 15.8294 12.975C16.2882 12.525 16.6706 12.0375 16.9765 11.5125C17.2824 10.9875 17.4353 10.425 17.4353 9.825C17.4353 8.55 16.9958 7.5935 16.1169 6.9555C15.237 6.3185 14.198 6 13 6C12.1078 6 11.337 6.2 10.6875 6.6C10.037 7 9.50784 7.5 9.1 8.1C8.92157 8.375 8.88945 8.6625 9.00365 8.9625C9.11886 9.2625 9.3549 9.475 9.71177 9.6C9.96667 9.7 10.2216 9.7 10.4765 9.6C10.7314 9.5 10.9608 9.3125 11.1647 9.0375C11.3686 8.7625 11.6174 8.5375 11.9111 8.3625C12.2037 8.1875 12.5667 8.1 13 8.1C13.6882 8.1 14.2047 8.2875 14.5493 8.6625C14.8929 9.0375 15.0647 9.45 15.0647 9.9C15.0647 10.325 14.9373 10.706 14.6824 11.043C14.4275 11.381 14.1216 11.725 13.7647 12.075C13.051 12.675 12.5728 13.1625 12.3301 13.5375C12.0885 13.9125 11.9422 14.425 11.8912 15.075C11.8657 15.375 11.9615 15.6375 12.1787 15.8625C12.3949 16.0875 12.6686 16.2 13 16.2Z" fill="#765ACF"/>
</svg>
