<svg width="20" height="21" viewBox="0 0 20 21" fill="none" xmlns="http://www.w3.org/2000/svg">
<path d="M13.6845 1.52718C12.749 0.542341 11.4423 0 10 0C8.55004 0 7.23902 0.539059 6.30779 1.5178C5.36647 2.50733 4.90783 3.85216 5.01552 5.30434C5.22898 8.16933 7.46497 10.4999 10 10.4999C12.535 10.4999 14.7672 8.1698 14.984 5.30528C15.0931 3.86623 14.6316 2.5242 13.6845 1.52718ZM18.4613 20.9999H1.53869C1.31719 21.0027 1.09783 20.9573 0.896579 20.8671C0.695324 20.7768 0.517233 20.644 0.375265 20.4782C0.0627732 20.1139 -0.0631848 19.6166 0.0300818 19.1136C0.43584 16.919 1.70215 15.0754 3.69248 13.7812C5.4607 12.6323 7.70054 11.9999 10 11.9999C12.2995 11.9999 14.5393 12.6327 16.3075 13.7812C18.2978 15.0749 19.5642 16.9185 19.9699 19.1132C20.0632 19.6161 19.9372 20.1135 19.6247 20.4777C19.4828 20.6436 19.3047 20.7765 19.1035 20.8669C18.9022 20.9572 18.6828 21.0026 18.4613 20.9999Z" fill="#9C9EAE"/>
</svg>
